<?xml version="1.0" standalone="no"?><!DOCTYPE svg PUBLIC "-//W3C//DTD SVG 1.1//EN" "http://www.w3.org/Graphics/SVG/1.1/DTD/svg11.dtd"><svg t="1555306669390" class="icon" style="" viewBox="0 0 1024 1024" version="1.1" xmlns="http://www.w3.org/2000/svg" p-id="2681" xmlns:xlink="http://www.w3.org/1999/xlink" width="200" height="200"><defs><style type="text/css">@font-face { font-family: rbicon; src: url("chrome-extension://dipiagiiohfljcicegpgffpbnjmgjcnf/fonts/rbicon.woff2") format("woff2"); font-weight: normal; font-style: normal; }
</style></defs><path d="M448 892.16a446.08 446.08 0 1 1 446.506667-446.08 446.08 446.08 0 0 1-446.506667 446.08z m0-845.866667a400 400 0 1 0 400.213333 399.786667A400 400 0 0 0 448 46.293333z" p-id="2682" fill="#cdcdcd"></path><path d="M763.306667 734.506667l248.746666 248.746666a22.016 22.016 0 1 1-30.72 31.573334L732.16 765.653333a22.016 22.016 0 1 1 31.146667-31.146666z" p-id="2683" fill="#cdcdcd"></path><path d="M996.906667 1024a24.746667 24.746667 0 0 1-17.28-7.04L730.026667 768a24.96 24.96 0 1 1 32.64-37.76l2.56 2.56L1014.186667 981.333333a24.96 24.96 0 0 1-17.28 42.666667zM746.666667 730.88a18.986667 18.986667 0 0 0-13.44 32.64l249.813333 248.96a19.413333 19.413333 0 0 0 27.52 0 19.2 19.2 0 0 0 0-27.093333L761.173333 736.426667a18.986667 18.986667 0 0 0-14.506666-5.546667z" p-id="2684" fill="#cdcdcd"></path></svg>